# File created by Blade
# Date/Time:  Thu Jan 22 19:29:47 2015
#---------------------------------------------------------
:version 1.10
:name HOM
:units
  mass 1.0
  length 1.000000
  angle deg
:documentation
     Acclaim Skeleton File
:root
   axis xyz
   order TX TY TZ RX RY RZ
   position 0.000000 0.000000 0.000000
   orientation 0 0 0
:bonedata
   begin
      id 1
      name RightUpLeg_dum
      direction -1.000000 0.000000 0.000000
      length 4.478084
      axis 0.0 0.0 0.0 xyz
   end
   begin
      id 2
      name LeftUpLeg_dum
      direction 1.000000 0.000000 0.000000
      length 4.478084
      axis 0.0 0.0 0.0 xyz
   end
   begin
      id 3
      name Spine_dum
      direction 0.000000 1.000000 0.000000
      length 6.068208
      axis 0.0 0.0 0.0 xyz
   end
   begin
      id 4
      name RightUpLeg
      direction 0.000000 -1.000000 0.000000
      length 16.405774
      axis 0.0 0.0 0.0 xyz
      dof rx ry rz
   end
   begin
      id 5
      name RightLeg
      direction 0.000000 -1.000000 0.000000
      length 14.644143
      axis 0.0 0.0 0.0 xyz
      dof rx ry rz
   end
   begin
      id 6
      name RightFoot
      direction 0.000000 -0.258819 0.965926
      length 5.806150
      axis 15.0 0.0 0.0 xyz
      dof rx ry rz
   end
   begin
      id 7
      name RightToeBase
      direction 0.000000 0.000000 1.000000
      length 2.952750
      axis 0.0 0.0 0.0 xyz
      dof rx ry rz
   end
   begin
      id 8
      name LeftUpLeg
      direction 0.000000 -1.000000 0.000000
      length 16.405774
      axis 0.0 0.0 0.0 xyz
      dof rx ry rz
   end
   begin
      id 9
      name LeftLeg
      direction 0.000000 -1.000000 0.000000
      length 14.644143
      axis 0.0 0.0 0.0 xyz
      dof rx ry rz
   end
   begin
      id 10
      name LeftFoot
      direction 0.000000 -0.258819 0.965926
      length 5.806150
      axis 15.0 0.0 0.0 xyz
      dof rx ry rz
   end
   begin
      id 11
      name LeftToeBase
      direction 0.000000 0.000000 1.000000
      length 2.952750
      axis 0.0 0.0 0.0 xyz
      dof rx ry rz
   end
   begin
      id 12
      name Spine
      direction 0.000000 1.000000 0.000000
      length 0.000000
      axis 0.0 0.0 0.0 xyz
      dof rx ry rz
   end
   begin
      id 13
      name Spine_dum1
      direction 0.000000 1.000000 0.000000
      length 10.013923
      axis 0.0 0.0 0.0 xyz
   end
   begin
      id 14
      name Spine_dum2
      direction 0.000000 1.000000 0.000000
      length 10.013923
      axis 0.0 0.0 0.0 xyz
   end
   begin
      id 15
      name Spine_dum3
      direction 0.000000 1.000000 0.000000
      length 15.777476
      axis 0.0 0.0 0.0 xyz
   end
   begin
      id 16
      name RightShoulder
      direction -1.000000 0.000000 0.000000
      length 7.190220
      axis 0.0 0.0 90.0 xyz
      dof rx ry rz
   end
   begin
      id 17
      name RightArm
      direction -1.000000 0.000000 0.000000
      length 10.177469
      axis 0.0 0.0 90.0 xyz
      dof rx ry rz
   end
   begin
      id 18
      name RightForeArm
      direction -1.000000 0.000000 0.000000
      length 8.392114
      axis 0.0 0.0 90.0 xyz
      dof ry rz rx
   end
   begin
      id 19
      name RightHand
      direction -1.000000 0.000000 0.000000
      length 0.000000
      axis 0.0 0.0 90.0 xyz
      dof rx ry rz
   end
   begin
      id 20
      name RightHand_dum1
      direction -1.000000 0.000000 0.000000
      length 3.937000
      axis 0.0 0.0 90.0 xyz
   end
   begin
      id 21
      name RightHand_dum2
      direction 0.000000 0.000000 0.000000
      length 0.000000
      axis 0.0 0.0 90.0 xyz
   end
   begin
      id 22
      name RightHandThumb1
      direction 0.000000 0.000000 1.000000
      length 3.937000
      axis 0.0 0.0 90.0 xyz
      dof rx rz ry
   end
   begin
      id 23
      name LeftShoulder
      direction 1.000000 0.000000 0.000000
      length 7.190220
      axis 0.0 0.0 -90.0 xyz
      dof rx ry rz
   end
   begin
      id 24
      name LeftArm
      direction 1.000000 0.000000 0.000000
      length 10.177469
      axis 0.0 0.0 -90.0 xyz
      dof rx ry rz
   end
   begin
      id 25
      name LeftForeArm
      direction 1.000000 0.000000 0.000000
      length 8.392114
      axis 0.0 0.0 -90.0 xyz
      dof ry rz rx
   end
   begin
      id 26
      name LeftHand
      direction 1.000000 0.000000 0.000000
      length 0.000000
      axis 0.0 0.0 -90.0 xyz
      dof rx ry rz
   end
   begin
      id 27
      name LeftHand_dum1
      direction 1.000000 0.000000 0.000000
      length 3.937000
      axis 0.0 0.0 -90.0 xyz
   end
   begin
      id 28
      name LeftHand_dum2
      direction 0.000000 0.000000 0.000000
      length 0.000000
      axis 0.0 0.0 -90.0 xyz
   end
   begin
      id 29
      name LeftHandThumb1
      direction 0.000000 0.000000 1.000000
      length 3.937000
      axis 0.0 0.0 -90.0 xyz
      dof rx rz ry
   end
   begin
      id 30
      name Head
      direction 0.000000 1.000000 0.000000
      length 4.527550
      axis 0.0 0.0 0.0 xyz
      dof rx ry rz
   end
:hierarchy
   begin
      root RightUpLeg_dum LeftUpLeg_dum Spine_dum
      RightUpLeg_dum RightUpLeg
      LeftUpLeg_dum LeftUpLeg
      Spine_dum Spine
      RightUpLeg RightLeg
      RightLeg RightFoot
      RightFoot RightToeBase
      LeftUpLeg LeftLeg
      LeftLeg LeftFoot
      LeftFoot LeftToeBase
      Spine Spine_dum1 Spine_dum2 Spine_dum3
      Spine_dum1 RightShoulder
      Spine_dum2 LeftShoulder
      Spine_dum3 Head
      RightShoulder RightArm
      RightArm RightForeArm
      RightForeArm RightHand
      RightHand RightHand_dum1 RightHand_dum2
      RightHand_dum2 RightHandThumb1
      LeftShoulder LeftArm
      LeftArm LeftForeArm
      LeftForeArm LeftHand
      LeftHand LeftHand_dum1 LeftHand_dum2
      LeftHand_dum2 LeftHandThumb1
   end

# File created by Blade
# Date/Time:  Thu Jan 22 19:29:39 2015
# Frame Rate: 120.000 fps
#------------------------------------------------------
:FULLY-SPECIFIED
:DEGREES
392
root -3.500132 32.964099 0.935050 8.908471 -16.349764 0.816908
RightUpLeg -6.272129 3.942210 0.786422
RightLeg 5.281091 -0.000000 -0.000000
RightFoot -12.963113 -2.307553 0.465699
RightToeBase 4.257742 -0.000000 -0.000000
LeftUpLeg -2.610454 9.239933 2.144140
LeftLeg 6.917337 -0.000000 -0.000000
LeftFoot -17.414449 7.116157 -18.677773
LeftToeBase 8.742538 -0.000000 -0.000000
Spine -8.076781 -11.858773 -0.206820
RightShoulder -17.892827 -22.918356 -13.507487
RightArm 16.816698 -12.825924 79.199104
RightForeArm -6.349837 -0.000000 34.436500
RightHand 12.224096 -0.000000 -4.121635
RightHandThumb1 -24.326973 -0.000000 -32.862282
LeftShoulder -15.810077 -4.688450 27.065312
LeftArm 49.398261 -5.072336 -79.242532
LeftForeArm 10.795616 0.000000 38.330697
LeftHand -5.865918 -0.000000 40.284063
LeftHandThumb1 -26.253704 0.000000 33.147579
Head 20.404066 32.749175 -0.689240
393
root -3.513235 32.961101 0.927579 8.934389 -16.367212 0.820197
RightUpLeg -6.360964 4.019844 0.807265
RightLeg 5.392565 -0.000000 -0.000000
RightFoot -13.019619 -2.396500 0.397348
RightToeBase 4.225190 -0.000000 -0.000000
LeftUpLeg -2.588127 9.322330 2.168183
LeftLeg 6.818818 -0.000000 -0.000000
LeftFoot -17.378419 7.029556 -18.730562
LeftToeBase 8.785100 -0.000000 -0.000000
Spine -8.023487 -11.827248 -0.262685
RightShoulder -17.827451 -22.854974 -13.550309
RightArm 16.747914 -12.890063 79.220079
RightForeArm -6.374863 -0.000000 34.547190
RightHand 12.212638 -0.000000 -4.101181
RightHandThumb1 -24.326973 -0.000000 -32.862282
LeftShoulder -15.860305 -4.731753 27.147587
LeftArm 49.831504 -4.989768 -78.843198
LeftForeArm 10.398839 -0.000000 37.560505
LeftHand -5.873646 0.000000 39.087681
LeftHandThumb1 -26.253704 0.000000 33.147579
Head 20.277415 32.736821 -0.785469
394
root -3.525731 32.958652 0.919783 8.953941 -16.380533 0.841919
RightUpLeg -6.460347 4.059248 0.812526
RightLeg 5.531907 -0.000000 -0.000000
RightFoot -13.094445 -2.453345 0.311692
RightToeBase 4.215893 -0.000000 -0.000000
LeftUpLeg -2.550170 9.305838 2.176550
LeftLeg 6.679927 -0.000000 -0.000000
LeftFoot -17.322993 7.028468 -18.803514
LeftToeBase 8.810720 -0.000000 -0.000000
Spine -7.966258 -11.786272 -0.329180
RightShoulder -17.777084 -22.842249 -13.587393
RightArm 16.736654 -12.981609 79.234410
RightForeArm -6.325039 -0.000000 34.665064
RightHand 12.166703 -0.000000 -4.071822
RightHandThumb1 -24.326973 -0.000000 -32.862282
LeftShoulder -15.872681 -4.764096 27.202571
LeftArm 50.229875 -4.872300 -78.249574
LeftForeArm 9.658944 -0.000000 36.863550
LeftHand -5.864730 -0.000000 38.553319
LeftHandThumb1 -26.253704 0.000000 33.147579
Head 20.148745 32.718594 -0.915601
395
root -3.543548 32.955651 0.912477 8.972946 -16.385597 0.846124
RightUpLeg -6.546399 4.132006 0.846293
RightLeg 5.666924 -0.000000 -0.000000
RightFoot -13.162681 -2.578495 0.197452
RightToeBase 4.198186 -0.000000 -0.000000
LeftUpLeg -2.519460 9.377706 2.211181
LeftLeg 6.577888 -0.000000 -0.000000
LeftFoot -17.270716 6.939364 -18.882467
LeftToeBase 8.799979 -0.000000 -0.000000
Spine -7.919885 -11.763633 -0.402086
RightShoulder -17.715653 -22.888722 -13.601739
RightArm 16.804182 -13.126123 79.214722
RightForeArm -6.246078 0.000000 34.715527
RightHand 12.202222 -0.000000 -4.075161
RightHandThumb1 -24.326973 -0.000000 -32.862282
LeftShoulder -15.871403 -4.745652 27.308312
LeftArm 50.755434 -4.901658 -77.952084
LeftForeArm 9.194954 -0.000000 35.977252
LeftHand -5.704140 -0.000000 37.771143
LeftHandThumb1 -26.253704 0.000000 33.147579
Head 20.080866 32.738180 -0.961501
396
root -3.562811 32.952757 0.904783 8.981093 -16.395496 0.854614
RightUpLeg -6.676413 4.016627 0.890131
RightLeg 5.910240 -0.000000 -0.000000
RightFoot -13.280327 -2.504282 0.065388
RightToeBase 4.168269 -0.000000 -0.000000
LeftUpLeg -2.479400 9.471739 2.240990
LeftLeg 6.477307 -0.000000 -0.000000
LeftFoot -17.225745 6.854782 -18.947210
LeftToeBase 8.844397 -0.000000 -0.000000
Spine -7.838633 -11.721105 -0.487905
RightShoulder -17.694440 -22.896275 -13.606575
RightArm 16.864587 -13.339114 79.166203
RightForeArm -6.193387 0.000000 34.757627
RightHand 12.166350 -0.000000 -4.024743
RightHandThumb1 -24.326973 -0.000000 -32.862282
LeftShoulder -15.880241 -4.825169 27.436475
LeftArm 51.202905 -4.900847 -77.608241
LeftForeArm 8.855002 0.000000 35.086010
LeftHand -5.566555 -0.000000 36.660831
LeftHandThumb1 -26.253704 0.000000 33.147579
Head 19.984659 32.732329 -1.041381
